<?xml version="1.0" encoding="utf-8"?>
<!-- Generator: Adobe Illustrator 18.0.0, SVG Export Plug-In . SVG Version: 6.00 Build 0)  -->
<!DOCTYPE svg PUBLIC "-//W3C//DTD SVG 1.1//EN" "http://www.w3.org/Graphics/SVG/1.1/DTD/svg11.dtd">
<svg version="1.1" xmlns="http://www.w3.org/2000/svg" xmlns:xlink="http://www.w3.org/1999/xlink" x="0px" y="0px" width="2800px"
	 height="2800px" viewBox="0 0 2800 2800" enable-background="new 0 0 2800 2800" xml:space="preserve">
<g id="BACKGROUND">
	<g>
		
			<linearGradient id="SVGID_1_" gradientUnits="userSpaceOnUse" x1="1400" y1="-4.934573e-07" x2="1400" y2="2122.3865" gradientTransform="matrix(-1 0 0 -1 2800 2122.3865)">
			<stop  offset="0" style="stop-color:#043D80;stop-opacity:0"/>
			<stop  offset="1" style="stop-color:#014DA8"/>
		</linearGradient>
		<rect fill="url(#SVGID_1_)" width="2800" height="2122.4"/>
		<linearGradient id="SVGID_2_" gradientUnits="userSpaceOnUse" x1="1400" y1="1257.7106" x2="1400" y2="-1.257104e-07">
			<stop  offset="0" style="stop-color:#043D80;stop-opacity:0"/>
			<stop  offset="1" style="stop-color:#014DA8"/>
		</linearGradient>
		<polygon opacity="0.1" fill="url(#SVGID_2_)" points="2800,1035.3 0,1257.7 0,0 2800,0 		"/>
		<linearGradient id="SVGID_3_" gradientUnits="userSpaceOnUse" x1="1400" y1="2122.3865" x2="1400" y2="1205.1996">
			<stop  offset="0" style="stop-color:#043D80;stop-opacity:0"/>
			<stop  offset="1" style="stop-color:#014DA8"/>
		</linearGradient>
		<polygon opacity="0.1" fill="url(#SVGID_3_)" points="2800,1205.2 0,1278.7 2800,2122.4 		"/>
		<linearGradient id="SVGID_4_" gradientUnits="userSpaceOnUse" x1="1400" y1="1543.9805" x2="1400" y2="626.7936">
			<stop  offset="0" style="stop-color:#043D80;stop-opacity:0"/>
			<stop  offset="1" style="stop-color:#014DA8"/>
		</linearGradient>
		<polygon opacity="0.1" fill="url(#SVGID_4_)" points="0,626.8 2800,700.3 0,1544 		"/>
		<linearGradient id="SVGID_5_" gradientUnits="userSpaceOnUse" x1="1400" y1="1788.0139" x2="1400" y2="1299.9471">
			<stop  offset="0" style="stop-color:#043D80;stop-opacity:0"/>
			<stop  offset="1" style="stop-color:#014DA8"/>
		</linearGradient>
		<polygon opacity="0.1" fill="url(#SVGID_5_)" points="2800,1299.9 0,1337.5 0,1788 2800,1520.5 		"/>
		<linearGradient id="SVGID_6_" gradientUnits="userSpaceOnUse" x1="1400" y1="2008.5825" x2="1400" y2="1454.8145">
			<stop  offset="0" style="stop-color:#043D80;stop-opacity:0"/>
			<stop  offset="1" style="stop-color:#014DA8"/>
		</linearGradient>
		<polygon opacity="0.1" fill="url(#SVGID_6_)" points="0,1454.8 2800,1663.8 0,2008.6 		"/>
		<linearGradient id="SVGID_7_" gradientUnits="userSpaceOnUse" x1="1400" y1="2122.3865" x2="1400" y2="1581.524">
			<stop  offset="0" style="stop-color:#043D80;stop-opacity:0"/>
			<stop  offset="1" style="stop-color:#014DA8"/>
		</linearGradient>
		<polygon opacity="0.1" fill="url(#SVGID_7_)" points="0,2122.4 2800,2122.4 2800,1834.9 0,1581.5 		"/>
	</g>
	<g opacity="0.5">
		<circle fill="#FFFFFF" cx="1904.2" cy="309.6" r="4.5"/>
		<circle fill="#FFFFFF" cx="2138.5" cy="168.7" r="4.5"/>
		<circle fill="#FFFFFF" cx="2441.7" cy="225.4" r="4.5"/>
		<circle fill="#FFFFFF" cx="2492.3" cy="1486.8" r="4.5"/>
		<circle fill="#FFFFFF" cx="520.9" cy="184.7" r="4.5"/>
		<circle fill="#FFFFFF" cx="525.4" cy="464.5" r="4.5"/>
		<circle fill="#FFFFFF" cx="167.1" cy="105.8" r="4.5"/>
		<circle fill="#FFFFFF" cx="932.4" cy="105.8" r="4.5"/>
		<circle fill="#FFFFFF" cx="1282.4" cy="761.3" r="4.5"/>
		<circle fill="#FFFFFF" cx="598.1" cy="1090" r="4.5"/>
		<circle fill="#FFFFFF" cx="220.1" cy="1094.5" r="4.5"/>
		<circle fill="#FFFFFF" cx="2708.8" cy="1230.1" r="7.2"/>
		<circle fill="#FFFFFF" cx="98.1" cy="1462.7" r="7.2"/>
		<circle fill="#FFFFFF" cx="2437.2" cy="813.2" r="7.2"/>
		<circle fill="#FFFFFF" cx="1899.8" cy="630.9" r="7.2"/>
		<circle fill="#FFFFFF" cx="2594.2" cy="570.2" r="7.2"/>
		<circle fill="#FFFFFF" cx="1762.3" cy="857.2" r="7.2"/>
		<circle fill="#FFFFFF" cx="1444.4" cy="813.2" r="7.2"/>
		<circle fill="#FFFFFF" cx="1601.4" cy="570.2" r="7.2"/>
		<circle fill="#FFFFFF" cx="793.1" cy="716.4" r="4.5"/>
		<circle fill="#FFFFFF" cx="1063.2" cy="515.6" r="4.5"/>
		<circle fill="#FFFFFF" cx="360.8" cy="765.7" r="4.5"/>
		<circle fill="#FFFFFF" cx="819.1" cy="839.8" r="4.5"/>
		<circle fill="#FFFFFF" cx="2631.1" cy="1806.4" r="7.2"/>
		<circle fill="#FFFFFF" cx="394.8" cy="1232.3" r="4.5"/>
		<circle fill="#FFFFFF" cx="291.4" cy="1399" r="4.5"/>
		<circle fill="#FFFFFF" cx="1718.7" cy="105.8" r="4.5"/>
		<circle fill="#FFFFFF" cx="153.4" cy="571" r="4.5"/>
		<circle fill="#FFFFFF" cx="1270.7" cy="189.1" r="7.2"/>
		<circle fill="#FFFFFF" cx="2587" cy="91.8" r="7.2"/>
		<circle fill="#FFFFFF" cx="1552" cy="418.8" r="7.2"/>
		<circle fill="#FFFFFF" cx="1400" cy="1440.4" r="4.5"/>
		<circle fill="#FFFFFF" cx="112.5" cy="1040.8" r="4.5"/>
		<circle fill="#FFFFFF" cx="1089.2" cy="1504.6" r="4.5"/>
		<circle fill="#FFFFFF" cx="2319.1" cy="1236.8" r="4.5"/>
		<circle fill="#FFFFFF" cx="1638.4" cy="998.4" r="4.5"/>
		<circle fill="#FFFFFF" cx="2345.2" cy="1431.4" r="4.5"/>
		<circle fill="#FFFFFF" cx="2058.6" cy="998.4" r="7.2"/>
		<circle fill="#FFFFFF" cx="2358.8" cy="966.2" r="4.5"/>
		<circle fill="#FFFFFF" cx="1437.1" cy="1611.1" r="7.2"/>
		<circle fill="#FFFFFF" cx="1221.1" cy="1678.8" r="7.2"/>
		<circle fill="#FFFFFF" cx="1104.1" cy="1014.7" r="7.2"/>
		<circle fill="#FFFFFF" cx="112.5" cy="1772" r="7.2"/>
	</g>
	<g>
		<radialGradient id="SVGID_8_" cx="2154.8596" cy="231.0941" r="47.6074" gradientUnits="userSpaceOnUse">
			<stop  offset="0" style="stop-color:#FFFFFF"/>
			<stop  offset="0.1375" style="stop-color:#FFFFFF;stop-opacity:0.8625"/>
			<stop  offset="1" style="stop-color:#FFFFFF;stop-opacity:0"/>
		</radialGradient>
		<circle fill="url(#SVGID_8_)" cx="2154.9" cy="231.1" r="47.6"/>
		<radialGradient id="SVGID_9_" cx="999.2273" cy="638.1235" r="47.6074" gradientUnits="userSpaceOnUse">
			<stop  offset="0" style="stop-color:#FFFFFF"/>
			<stop  offset="0.1375" style="stop-color:#FFFFFF;stop-opacity:0.8625"/>
			<stop  offset="1" style="stop-color:#FFFFFF;stop-opacity:0"/>
		</radialGradient>
		<circle fill="url(#SVGID_9_)" cx="999.2" cy="638.1" r="47.6"/>
		<radialGradient id="SVGID_10_" cx="2637.2979" cy="1722.5125" r="47.6074" gradientUnits="userSpaceOnUse">
			<stop  offset="0" style="stop-color:#FFFFFF"/>
			<stop  offset="0.1375" style="stop-color:#FFFFFF;stop-opacity:0.8625"/>
			<stop  offset="1" style="stop-color:#FFFFFF;stop-opacity:0"/>
		</radialGradient>
		<circle fill="url(#SVGID_10_)" cx="2637.3" cy="1722.5" r="47.6"/>
		<radialGradient id="SVGID_11_" cx="1636.5" cy="1126.7208" r="47.6074" gradientUnits="userSpaceOnUse">
			<stop  offset="0" style="stop-color:#FFFFFF"/>
			<stop  offset="0.1375" style="stop-color:#FFFFFF;stop-opacity:0.8625"/>
			<stop  offset="1" style="stop-color:#FFFFFF;stop-opacity:0"/>
		</radialGradient>
		<circle fill="url(#SVGID_11_)" cx="1636.5" cy="1126.7" r="47.6"/>
		<radialGradient id="SVGID_12_" cx="1337.5138" cy="1709.2458" r="47.6074" gradientUnits="userSpaceOnUse">
			<stop  offset="0" style="stop-color:#FFFFFF"/>
			<stop  offset="0.1375" style="stop-color:#FFFFFF;stop-opacity:0.8625"/>
			<stop  offset="1" style="stop-color:#FFFFFF;stop-opacity:0"/>
		</radialGradient>
		<circle fill="url(#SVGID_12_)" cx="1337.5" cy="1709.2" r="47.6"/>
		<radialGradient id="SVGID_13_" cx="1111.3088" cy="1618.3177" r="47.6074" gradientUnits="userSpaceOnUse">
			<stop  offset="0" style="stop-color:#FFFFFF"/>
			<stop  offset="0.1375" style="stop-color:#FFFFFF;stop-opacity:0.8625"/>
			<stop  offset="1" style="stop-color:#FFFFFF;stop-opacity:0"/>
		</radialGradient>
		<circle fill="url(#SVGID_13_)" cx="1111.3" cy="1618.3" r="47.6"/>
		<radialGradient id="SVGID_14_" cx="1308.5491" cy="1431.4084" r="28.9648" gradientUnits="userSpaceOnUse">
			<stop  offset="0" style="stop-color:#FFFFFF"/>
			<stop  offset="0.1375" style="stop-color:#FFFFFF;stop-opacity:0.8625"/>
			<stop  offset="1" style="stop-color:#FFFFFF;stop-opacity:0"/>
		</radialGradient>
		<circle fill="url(#SVGID_14_)" cx="1308.5" cy="1431.4" r="29"/>
		<radialGradient id="SVGID_15_" cx="1935.2667" cy="379.0824" r="28.9648" gradientUnits="userSpaceOnUse">
			<stop  offset="0" style="stop-color:#FFFFFF"/>
			<stop  offset="0.1375" style="stop-color:#FFFFFF;stop-opacity:0.8625"/>
			<stop  offset="1" style="stop-color:#FFFFFF;stop-opacity:0"/>
		</radialGradient>
		<circle fill="url(#SVGID_15_)" cx="1935.3" cy="379.1" r="29"/>
		<radialGradient id="SVGID_16_" cx="2122.0222" cy="1197.4379" r="28.9648" gradientUnits="userSpaceOnUse">
			<stop  offset="0" style="stop-color:#FFFFFF"/>
			<stop  offset="0.1375" style="stop-color:#FFFFFF;stop-opacity:0.8625"/>
			<stop  offset="1" style="stop-color:#FFFFFF;stop-opacity:0"/>
		</radialGradient>
		<circle fill="url(#SVGID_16_)" cx="2122" cy="1197.4" r="29"/>
		<radialGradient id="SVGID_17_" cx="2429.9792" cy="1639" r="28.9648" gradientUnits="userSpaceOnUse">
			<stop  offset="0" style="stop-color:#FFFFFF"/>
			<stop  offset="0.1375" style="stop-color:#FFFFFF;stop-opacity:0.8625"/>
			<stop  offset="1" style="stop-color:#FFFFFF;stop-opacity:0"/>
		</radialGradient>
		<circle fill="url(#SVGID_17_)" cx="2430" cy="1639" r="29"/>
		<radialGradient id="SVGID_18_" cx="1156.3862" cy="857.1712" r="28.9648" gradientUnits="userSpaceOnUse">
			<stop  offset="0" style="stop-color:#FFFFFF"/>
			<stop  offset="0.1375" style="stop-color:#FFFFFF;stop-opacity:0.8625"/>
			<stop  offset="1" style="stop-color:#FFFFFF;stop-opacity:0"/>
		</radialGradient>
		<circle fill="url(#SVGID_18_)" cx="1156.4" cy="857.2" r="29"/>
		<radialGradient id="SVGID_19_" cx="1400.0001" cy="183.4867" r="28.9648" gradientUnits="userSpaceOnUse">
			<stop  offset="0" style="stop-color:#FFFFFF"/>
			<stop  offset="0.1375" style="stop-color:#FFFFFF;stop-opacity:0.8625"/>
			<stop  offset="1" style="stop-color:#FFFFFF;stop-opacity:0"/>
		</radialGradient>
		<circle fill="url(#SVGID_19_)" cx="1400" cy="183.5" r="29"/>
		<radialGradient id="SVGID_20_" cx="471.3712" cy="907.4513" r="28.9648" gradientUnits="userSpaceOnUse">
			<stop  offset="0" style="stop-color:#FFFFFF"/>
			<stop  offset="0.1375" style="stop-color:#FFFFFF;stop-opacity:0.8625"/>
			<stop  offset="1" style="stop-color:#FFFFFF;stop-opacity:0"/>
		</radialGradient>
		<circle fill="url(#SVGID_20_)" cx="471.4" cy="907.5" r="29"/>
		<radialGradient id="SVGID_21_" cx="1879.8201" cy="1090.1229" r="28.9648" gradientUnits="userSpaceOnUse">
			<stop  offset="0" style="stop-color:#FFFFFF"/>
			<stop  offset="0.1375" style="stop-color:#FFFFFF;stop-opacity:0.8625"/>
			<stop  offset="1" style="stop-color:#FFFFFF;stop-opacity:0"/>
		</radialGradient>
		<circle fill="url(#SVGID_21_)" cx="1879.8" cy="1090.1" r="29"/>
		<radialGradient id="SVGID_22_" cx="1519.2006" cy="857.1712" r="28.9648" gradientUnits="userSpaceOnUse">
			<stop  offset="0" style="stop-color:#FFFFFF"/>
			<stop  offset="0.1375" style="stop-color:#FFFFFF;stop-opacity:0.8625"/>
			<stop  offset="1" style="stop-color:#FFFFFF;stop-opacity:0"/>
		</radialGradient>
		<circle fill="url(#SVGID_22_)" cx="1519.2" cy="857.2" r="29"/>
		<radialGradient id="SVGID_23_" cx="2525.0835" cy="258.699" r="28.9648" gradientUnits="userSpaceOnUse">
			<stop  offset="0" style="stop-color:#FFFFFF"/>
			<stop  offset="0.1375" style="stop-color:#FFFFFF;stop-opacity:0.8625"/>
			<stop  offset="1" style="stop-color:#FFFFFF;stop-opacity:0"/>
		</radialGradient>
		<circle fill="url(#SVGID_23_)" cx="2525.1" cy="258.7" r="29"/>
		<radialGradient id="SVGID_24_" cx="173.459" cy="849.9615" r="28.9648" gradientUnits="userSpaceOnUse">
			<stop  offset="0" style="stop-color:#FFFFFF"/>
			<stop  offset="0.1375" style="stop-color:#FFFFFF;stop-opacity:0.8625"/>
			<stop  offset="1" style="stop-color:#FFFFFF;stop-opacity:0"/>
		</radialGradient>
		<circle fill="url(#SVGID_24_)" cx="173.5" cy="850" r="29"/>
		<radialGradient id="SVGID_25_" cx="1490.2358" cy="1031.7681" r="28.9648" gradientUnits="userSpaceOnUse">
			<stop  offset="0" style="stop-color:#FFFFFF"/>
			<stop  offset="0.1375" style="stop-color:#FFFFFF;stop-opacity:0.8625"/>
			<stop  offset="1" style="stop-color:#FFFFFF;stop-opacity:0"/>
		</radialGradient>
		<circle fill="url(#SVGID_25_)" cx="1490.2" cy="1031.8" r="29"/>
		<radialGradient id="SVGID_26_" cx="970.2626" cy="1080.8649" r="28.9648" gradientUnits="userSpaceOnUse">
			<stop  offset="0" style="stop-color:#FFFFFF"/>
			<stop  offset="0.1375" style="stop-color:#FFFFFF;stop-opacity:0.8625"/>
			<stop  offset="1" style="stop-color:#FFFFFF;stop-opacity:0"/>
		</radialGradient>
		<circle fill="url(#SVGID_26_)" cx="970.3" cy="1080.9" r="29"/>
		<radialGradient id="SVGID_27_" cx="1354.8621" cy="350.1176" r="28.9648" gradientUnits="userSpaceOnUse">
			<stop  offset="0" style="stop-color:#FFFFFF"/>
			<stop  offset="0.1375" style="stop-color:#FFFFFF;stop-opacity:0.8625"/>
			<stop  offset="1" style="stop-color:#FFFFFF;stop-opacity:0"/>
		</radialGradient>
		<circle fill="url(#SVGID_27_)" cx="1354.9" cy="350.1" r="29"/>
		<radialGradient id="SVGID_28_" cx="365.2296" cy="1059.0597" r="32.8587" gradientUnits="userSpaceOnUse">
			<stop  offset="0" style="stop-color:#FFFFFF"/>
			<stop  offset="0.1375" style="stop-color:#FFFFFF;stop-opacity:0.8625"/>
			<stop  offset="1" style="stop-color:#FFFFFF;stop-opacity:0"/>
		</radialGradient>
		<circle fill="url(#SVGID_28_)" cx="365.2" cy="1059.1" r="32.9"/>
		<radialGradient id="SVGID_29_" cx="1308.5491" cy="1230.2965" r="32.8587" gradientUnits="userSpaceOnUse">
			<stop  offset="0" style="stop-color:#FFFFFF"/>
			<stop  offset="0.1375" style="stop-color:#FFFFFF;stop-opacity:0.8625"/>
			<stop  offset="1" style="stop-color:#FFFFFF;stop-opacity:0"/>
		</radialGradient>
		<circle fill="url(#SVGID_29_)" cx="1308.5" cy="1230.3" r="32.9"/>
		<radialGradient id="SVGID_30_" cx="2191.1487" cy="631.699" r="32.8587" gradientUnits="userSpaceOnUse">
			<stop  offset="0" style="stop-color:#FFFFFF"/>
			<stop  offset="0.1375" style="stop-color:#FFFFFF;stop-opacity:0.8625"/>
			<stop  offset="1" style="stop-color:#FFFFFF;stop-opacity:0"/>
		</radialGradient>
		<circle fill="url(#SVGID_30_)" cx="2191.1" cy="631.7" r="32.9"/>
		<radialGradient id="SVGID_31_" cx="238.5571" cy="350.1177" r="47.6074" gradientUnits="userSpaceOnUse">
			<stop  offset="0" style="stop-color:#FFFFFF"/>
			<stop  offset="0.1375" style="stop-color:#FFFFFF;stop-opacity:0.8625"/>
			<stop  offset="1" style="stop-color:#FFFFFF;stop-opacity:0"/>
		</radialGradient>
		<circle fill="url(#SVGID_31_)" cx="238.6" cy="350.1" r="47.6"/>
		<radialGradient id="SVGID_32_" cx="1479.6589" cy="1301.1866" r="28.9648" gradientUnits="userSpaceOnUse">
			<stop  offset="0" style="stop-color:#FFFFFF"/>
			<stop  offset="0.1375" style="stop-color:#FFFFFF;stop-opacity:0.8625"/>
			<stop  offset="1" style="stop-color:#FFFFFF;stop-opacity:0"/>
		</radialGradient>
		<circle fill="url(#SVGID_32_)" cx="1479.7" cy="1301.2" r="29"/>
		<radialGradient id="SVGID_33_" cx="970.2626" cy="1249.9385" r="28.9648" gradientUnits="userSpaceOnUse">
			<stop  offset="0" style="stop-color:#FFFFFF"/>
			<stop  offset="0.1375" style="stop-color:#FFFFFF;stop-opacity:0.8625"/>
			<stop  offset="1" style="stop-color:#FFFFFF;stop-opacity:0"/>
		</radialGradient>
		<circle fill="url(#SVGID_33_)" cx="970.3" cy="1249.9" r="29"/>
		<radialGradient id="SVGID_34_" cx="1388.4238" cy="673.245" r="28.9648" gradientUnits="userSpaceOnUse">
			<stop  offset="0" style="stop-color:#FFFFFF"/>
			<stop  offset="0.1375" style="stop-color:#FFFFFF;stop-opacity:0.8625"/>
			<stop  offset="1" style="stop-color:#FFFFFF;stop-opacity:0"/>
		</radialGradient>
		<circle fill="url(#SVGID_34_)" cx="1388.4" cy="673.2" r="29"/>
		<radialGradient id="SVGID_35_" cx="927.5016" cy="379.0824" r="28.9648" gradientUnits="userSpaceOnUse">
			<stop  offset="0" style="stop-color:#FFFFFF"/>
			<stop  offset="0.1375" style="stop-color:#FFFFFF;stop-opacity:0.8625"/>
			<stop  offset="1" style="stop-color:#FFFFFF;stop-opacity:0"/>
		</radialGradient>
		<circle fill="url(#SVGID_35_)" cx="927.5" cy="379.1" r="29"/>
		<radialGradient id="SVGID_36_" cx="1751.2466" cy="490.9785" r="28.9648" gradientUnits="userSpaceOnUse">
			<stop  offset="0" style="stop-color:#FFFFFF"/>
			<stop  offset="0.1375" style="stop-color:#FFFFFF;stop-opacity:0.8625"/>
			<stop  offset="1" style="stop-color:#FFFFFF;stop-opacity:0"/>
		</radialGradient>
		<circle fill="url(#SVGID_36_)" cx="1751.2" cy="491" r="29"/>
		<radialGradient id="SVGID_37_" cx="2462.6687" cy="598.8403" r="28.9648" gradientUnits="userSpaceOnUse">
			<stop  offset="0" style="stop-color:#FFFFFF"/>
			<stop  offset="0.1375" style="stop-color:#FFFFFF;stop-opacity:0.8625"/>
			<stop  offset="1" style="stop-color:#FFFFFF;stop-opacity:0"/>
		</radialGradient>
		<circle fill="url(#SVGID_37_)" cx="2462.7" cy="598.8" r="29"/>
		<radialGradient id="SVGID_38_" cx="2596.2014" cy="1038.8585" r="28.9648" gradientUnits="userSpaceOnUse">
			<stop  offset="0" style="stop-color:#FFFFFF"/>
			<stop  offset="0.1375" style="stop-color:#FFFFFF;stop-opacity:0.8625"/>
			<stop  offset="1" style="stop-color:#FFFFFF;stop-opacity:0"/>
		</radialGradient>
		<circle fill="url(#SVGID_38_)" cx="2596.2" cy="1038.9" r="29"/>
		<radialGradient id="SVGID_39_" cx="2313.8245" cy="1038.8585" r="28.9648" gradientUnits="userSpaceOnUse">
			<stop  offset="0" style="stop-color:#FFFFFF"/>
			<stop  offset="0.1375" style="stop-color:#FFFFFF;stop-opacity:0.8625"/>
			<stop  offset="1" style="stop-color:#FFFFFF;stop-opacity:0"/>
		</radialGradient>
		<circle fill="url(#SVGID_39_)" cx="2313.8" cy="1038.9" r="29"/>
		<radialGradient id="SVGID_40_" cx="2589.6904" cy="1241.3993" r="28.9648" gradientUnits="userSpaceOnUse">
			<stop  offset="0" style="stop-color:#FFFFFF"/>
			<stop  offset="0.1375" style="stop-color:#FFFFFF;stop-opacity:0.8625"/>
			<stop  offset="1" style="stop-color:#FFFFFF;stop-opacity:0"/>
		</radialGradient>
		<circle fill="url(#SVGID_40_)" cx="2589.7" cy="1241.4" r="29"/>
		<radialGradient id="SVGID_41_" cx="256.9015" cy="1272.3157" r="28.9648" gradientUnits="userSpaceOnUse">
			<stop  offset="0" style="stop-color:#FFFFFF"/>
			<stop  offset="0.1375" style="stop-color:#FFFFFF;stop-opacity:0.8625"/>
			<stop  offset="1" style="stop-color:#FFFFFF;stop-opacity:0"/>
		</radialGradient>
		<circle fill="url(#SVGID_41_)" cx="256.9" cy="1272.3" r="29"/>
		<radialGradient id="SVGID_42_" cx="941.2978" cy="758.7404" r="28.9648" gradientUnits="userSpaceOnUse">
			<stop  offset="0" style="stop-color:#FFFFFF"/>
			<stop  offset="0.1375" style="stop-color:#FFFFFF;stop-opacity:0.8625"/>
			<stop  offset="1" style="stop-color:#FFFFFF;stop-opacity:0"/>
		</radialGradient>
		<circle fill="url(#SVGID_42_)" cx="941.3" cy="758.7" r="29"/>
		<radialGradient id="SVGID_43_" cx="794.3053" cy="1314.0057" r="28.9648" gradientUnits="userSpaceOnUse">
			<stop  offset="0" style="stop-color:#FFFFFF"/>
			<stop  offset="0.1375" style="stop-color:#FFFFFF;stop-opacity:0.8625"/>
			<stop  offset="1" style="stop-color:#FFFFFF;stop-opacity:0"/>
		</radialGradient>
		<circle fill="url(#SVGID_43_)" cx="794.3" cy="1314" r="29"/>
		<radialGradient id="SVGID_44_" cx="421.2102" cy="644.2802" r="28.9648" gradientUnits="userSpaceOnUse">
			<stop  offset="0" style="stop-color:#FFFFFF"/>
			<stop  offset="0.1375" style="stop-color:#FFFFFF;stop-opacity:0.8625"/>
			<stop  offset="1" style="stop-color:#FFFFFF;stop-opacity:0"/>
		</radialGradient>
		<circle fill="url(#SVGID_44_)" cx="421.2" cy="644.3" r="29"/>
		<radialGradient id="SVGID_45_" cx="471.3712" cy="374.7788" r="28.9648" gradientUnits="userSpaceOnUse">
			<stop  offset="0" style="stop-color:#FFFFFF"/>
			<stop  offset="0.1375" style="stop-color:#FFFFFF;stop-opacity:0.8625"/>
			<stop  offset="1" style="stop-color:#FFFFFF;stop-opacity:0"/>
		</radialGradient>
		<circle fill="url(#SVGID_45_)" cx="471.4" cy="374.8" r="29"/>
		<radialGradient id="SVGID_46_" cx="981.162" cy="173.5" r="28.9648" gradientUnits="userSpaceOnUse">
			<stop  offset="0" style="stop-color:#FFFFFF"/>
			<stop  offset="0.1375" style="stop-color:#FFFFFF;stop-opacity:0.8625"/>
			<stop  offset="1" style="stop-color:#FFFFFF;stop-opacity:0"/>
		</radialGradient>
		<circle fill="url(#SVGID_46_)" cx="981.2" cy="173.5" r="29"/>
	</g>
</g>
<g id="GROUND">
	<g>
		<polygon fill="#7CACFD" points="1809,1722.6 2405,1433.3 2509,1433.3 2800,1542.9 2800,1941.9 1809,1941.9 		"/>
		<polygon fill="#031F51" points="1809,1941.9 1809,1722.6 2405,1433.3 2509,1433.3 2601,1503.3 2367.8,1628.6 2635,1535.7 
			2695,1537 2585.8,1666.5 2756.4,1561.9 2800,1612.8 2800,1941.9 		"/>
		<polygon fill="#7CACFD" points="0,1603.7 541,1503.3 681,1503.3 961,1628.1 1673,1768.1 1673,1941.9 0,1941.9 		"/>
		<polygon fill="#007BEB" points="0,1603.7 541,1503.3 681,1503.3 720,1570.8 577,1681.1 785.1,1576.2 895,1629.3 821,1722.6 
			963,1647 1324.9,1716.8 1143.2,1760.7 1375.8,1729.5 1673,1768.1 1673,1941.9 0,1941.9 		"/>
		<polygon fill="#007BEB" points="485.5,1941.9 791.1,1807.8 1375.8,1729.5 1657.9,1570.8 1734.3,1570.8 2004.6,1664.7 
			2392.4,1664.7 2800,1797.2 2800,1941.9 		"/>
		<polygon fill="#7CACFD" points="0,1797.5 325.7,1797.5 555.3,1847.1 889.5,1847.1 1031.3,1890.7 1268.6,1897 1469,1941.9 
			1731.2,1831.2 1907.6,1831.2 2028,1797.5 2294,1854.7 2540.4,1797.5 2800,1797.5 2800,2030.1 0,2030.1 		"/>
	</g>
	<g>
		<path fill="#00399C" d="M2485,1937.3c-168-8.9-976,11.7-1291.7-80.3S0,1900.6,0,1900.6V2800h2800v-777.3
			C2800,2022.7,2653,1946.3,2485,1937.3z"/>
		<g>
			<polygon fill="#7CACFD" points="2405,2291.4 2509,2291.4 2800,2401 2800,2800 1809,2800 			"/>
			<polygon fill="#031F51" points="1619,2800 2405,2291.4 2509,2291.4 2601,2361.4 2367.8,2486.8 2635,2393.8 2695,2395.1 
				2585.8,2524.7 2756.4,2420 2800,2471 2800,2800 			"/>
		</g>
	</g>
	<ellipse opacity="0.3" fill="#031F51" cx="602.7" cy="2601" rx="434.6" ry="88"/>
	<ellipse opacity="0.3" fill="#031F51" cx="1103.7" cy="2575.1" rx="345" ry="62.1"/>
	<ellipse opacity="0.3" fill="#031F51" cx="1519.7" cy="2004.1" rx="345" ry="62.1"/>
	<ellipse opacity="0.3" fill="#031F51" cx="2284.7" cy="2027.6" rx="309.4" ry="42.6"/>
</g>
<g id="SPACESHIP">
	<g>
		<path fill="#7CACFD" d="M1585,1461L1585,1461l-10.6,0c-11.4,0-22.3,3.6-31.1,10c-8.8,6.4-15.8,15.4-19.4,26.3L1364,1972.9
			c-1.5,4.6,0.9,9.6,5.5,11.1c4.6,1.5,9.6-0.9,11.1-5.5l159.9-475.7c2.4-7.3,7.1-13.1,13-17.4c5.9-4.3,13.2-6.5,20.9-6.5h10.6
			c4.8,0,8.8-4.1,8.8-9S1590,1461,1585,1461z"/>
		<path fill="#00399C" d="M2433.7,1972.9l-159.9-475.7c-3.6-10.8-10.6-19.9-19.4-26.3c-8.8-6.4-19.7-10-31.1-10h-10.6
			c-4.8,0-8.6,3.9-8.6,8.8c0,4.8,2.9,8.9,8.9,8.9v0.3h10.4c7.7,0,14.9,2.2,20.9,6.5c5.9,4.3,10.6,10.2,13,17.5l159.9,475.6
			c1.5,4.6,6.5,7,11.1,5.5C2432.8,1982.5,2435.3,1977.5,2433.7,1972.9z"/>
		<path fill="#00399C" d="M2159.3,1809.5h-523.9c-9,0-16.3-7.3-16.3-16.3v-308.8c0-9,7.3-16.3,16.3-16.3h523.9
			c9,0,16.3,7.3,16.3,16.3v308.8C2175.6,1802.2,2168.3,1809.5,2159.3,1809.5z"/>
		<path fill="#007BEB" d="M1693,1740.6V1537c0-38.1,31.2-69,69.3-69h-130.1c-7.2,0-13.2,6-13.2,13.2v315.2c0,7.2,5.9,13.6,13.2,13.6
			h130.1C1724.2,1810,1693,1778.7,1693,1740.6z"/>
		<path fill="#7CACFD" d="M1654,1481.4c0-7.4-5.7-13.4-12.8-13.4h-9.4c-7.1,0-12.8,6-12.8,13.4v314.2c0,7.4,5.7,13.4,12.8,13.4h9.4
			c7.1,0,12.8-6,12.8-13.4V1481.4z"/>
		<rect x="1770.6" y="1332.2" fill="#00399C" width="280.5" height="135.3"/>
		<path fill="#7CACFD" d="M2114.6,1321.2c2.2,4,3.4,8.6,3.4,13.2v62.9c0,9.1,4.5,17.4,11.9,22.7c1.5,1,2.9,2.4,4.4,4.1
			c13.6,16,3.9,39.9-15.3,44.2l-67.8-0.7c-15.1-0.1-27.2-12.4-27.2-27.5v-118.3c0-15.2,12.1-27.7,27.3-27.7h6.3
			C2094,1294,2108.9,1310.8,2114.6,1321.2z"/>
		<path fill="#007BEB" d="M1744.6,1170.9c-50.5,30.3-58.1,117.5-58.8,158.2c-0.2,11.8,9.3,21.5,21.1,21.5h343.9
			c10.1,0,18.7-7.4,20.1-17.5c5.9-41.7,10-146.8-88.5-188.4C1858.4,1092.3,1744.6,1170.9,1744.6,1170.9z"/>
		<path fill="#7CACFD" d="M1703.5,1328.8c0.7-40.7,8.3-127.7,58.8-158.1c0,0,59.5-41,139.4-43.9c-88.6-3.3-157.1,44.1-157.1,44.1
			c-50.5,30.3-58.1,117.2-58.8,157.9c-0.2,11.8,9.3,21.2,21.1,21.2h17.7C1712.8,1350,1703.3,1340.6,1703.5,1328.8z"/>
		<path fill="#7CACFD" d="M1610.8,1424c1.4-1.7,2.9-3,4.4-4.1c7.4-5.3,12-13.6,12-22.7v-62.9c0-4.6,1.1-9.1,3.3-13.1
			c5.7-10.4,20.6-27.1,56.9-27.1h81.6c15.2,0,27.5,12.3,27.5,27.5V1440c0,15.1-12.2,27.4-27.3,27.5l-136.7,1.3
			C1609.2,1469,1595.8,1441.7,1610.8,1424z"/>
		<path fill="#007BEB" d="M1712.1,1321.2c-2.2,4-3.1,8.6-3.1,13.2v62.9c0,9.1-4.7,17.4-12.1,22.7c-1.5,1-3,2.4-4.5,4.1
			c-13.6,16-4,39.9,15.2,44.2l68-0.7c15.1-0.1,27.4-12.4,27.4-27.5v-118.3c0-15.2-12.6-27.7-27.8-27.7h-6.3
			C1732.6,1294,1717.9,1310.8,1712.1,1321.2z"/>
		<path fill="#007BEB" d="M2217.7,1482.3h-641.1c-5.8,0-10.5-4.7-10.5-10.5v-5.3c0-5.8,4.7-10.5,10.5-10.5h641.1
			c5.8,0,10.5,4.7,10.5,10.5v5.3C2228.2,1477.6,2223.5,1482.3,2217.7,1482.3z"/>
		<path fill="#007BEB" d="M2217.7,1834.6h-641.1c-5.8,0-10.5-4.7-10.5-10.5v-5.3c0-5.8,4.7-10.5,10.5-10.5h641.1
			c5.8,0,10.5,4.7,10.5,10.5v5.3C2228.2,1829.9,2223.5,1834.6,2217.7,1834.6z"/>
		<path fill="#7CACFD" d="M2217.7,1819.5h-641.1c-5.8,0-10.5-4.7-10.5-10.5v-5.3c0-5.8,4.7-10.5,10.5-10.5h641.1
			c5.8,0,10.5,4.7,10.5,10.5v5.3C2228.2,1814.8,2223.5,1819.5,2217.7,1819.5z"/>
		<ellipse fill="#7CACFD" cx="2003.6" cy="1253.6" rx="67.5" ry="78.6"/>
		<path fill="#00399C" d="M2003.6,1322.2c-31.7,0-57.5-30.7-57.5-68.5c0-37.8,25.8-68.5,57.5-68.5c31.7,0,57.5,30.7,57.5,68.5
			C2061.1,1291.4,2035.3,1322.2,2003.6,1322.2z"/>
		<path fill="#031F51" d="M2003.6,1185.1c-1.7,0-3.4,0.1-5,0.3c29.3,3,52.4,32.5,52.4,68.2c0,35.8-23.1,65.2-52.4,68.2
			c1.7,0.2,3.3,0.3,5,0.3c31.7,0,57.5-30.7,57.5-68.5C2061.1,1215.9,2035.3,1185.1,2003.6,1185.1z"/>
		<path fill="#031F51" d="M2342.9,2005.3L2183,1499.5c-3.6-11.5-10.6-21.2-19.4-27.9c-8.8-6.8-19.7-10.6-31.1-10.6h-10.6
			c-4.8,0-8.7,4.2-8.7,9.3c0,5.2,3.8,9.5,8.8,9.5v0.2h10.5c7.7,0,14.9,2.4,20.9,6.9c5.9,4.5,10.6,10.9,13,18.6l159.9,505.7
			c1.5,4.9,6.5,7.5,11.1,5.8C2342,2015.5,2344.5,2010.2,2342.9,2005.3z"/>
		<path fill="#031F51" d="M1725,1461L1725,1461l-10.2,0c-11.4,0-22.3,3.9-31.1,10.6c-8.8,6.8-15.8,16.4-19.4,27.9l-159.9,505.7
			c-1.5,4.9,0.9,10.2,5.5,11.8c4.6,1.6,9.6-1,11.1-5.9l159.9-505.7c2.4-7.7,7.1-14,13-18.5c5.9-4.5,13.2-6.9,20.9-6.9h10.6
			c4.8,0,8.6-4.3,8.6-9.5C1734,1465.4,1730,1461,1725,1461z"/>
	</g>
</g>
<g id="SPACEMAN">
	<g>
		<path fill="#6C203A" d="M1324.2,1021.2c40.6-28.1,71.8-55.1,81.2-41.6c9.4,13.5-36.4,52.2-36.4,52.2s32.9,50.8,5.2,79.9
			c-27.7,29.1-64.5,30.4-64.5,30.4S1276.3,1047.2,1324.2,1021.2z"/>
		<path fill="#FD5D0F" d="M973.5,1910.7c0,0,180,201.9,197.2,301.8c17.2,99.9-60.9,309-60.9,309s58,21.8,63.3,40.6
			c5.3,18.7-161.6,17.2-171,14s0-46.8,0-46.8l-28.7-227.8l-216.9-117c0,0-71.3,152.9-122.8,185.7
			c-51.5,32.8-271.5,170.1-271.5,170.1s9.4,18.7,12.5,28.1c3.1,9.4,32.8,25-12.5,26.5c-45.3,1.6-93.6,4.7-95.2-57.7
			c-1.6-62.4,161-245,161-245s36.7-276.7,117.3-377.1S898.3,1819.5,973.5,1910.7z"/>
		<path fill="#DC1E00" d="M963.2,1840c-1.6,86.9-47.6,176.2-208,166.5c-153.9-9.4-204.8-48.4-233.1-91.6
			C486.4,1860.6,963.2,1840,963.2,1840z"/>
		<path fill="#FD5D0F" d="M550.4,1330.7l-66.8,9.9c0,0-224.7,98.8-291.3,223.7s-6.2,300.2-6.2,300.2l53.1-10.9
			c0,0,155-131.4,166.5-199.4l80.1-75c0,0-4.2,292.1,36.4,335.8c40.6,43.7,211.2,65.5,308,53.1c96.8-12.5,128-88.4,133.2-128
			c5.2-39.5-33.3-387-33.3-387s69.7,0.9,200.8-52.1s178.9-258.7,178.9-258.7s-33.3-0.3-41.6-35.7c0,0-106.1,23.9-196.6,74.9
			s-276.8,128-276.8,128S670.3,1358.3,550.4,1330.7z"/>
		<path fill="#E13300" d="M597.7,1950.6c3.5-16.9,7.1-51,6.5-120c-1-129-43.7-379.7-43.7-379.7l-34.2-6
			c14.7,103.3-40.7,134.2-40.7,134.2s-4.2,292.1,36.4,335.8l19.4,14.5C556.1,1937.6,575.5,1944.7,597.7,1950.6z"/>
		<path fill="#DC1E00" d="M939.3,1540.7c-5.3-51-9.4-87.8-9.4-87.8s2.7-81.9-68.4-172c0,0,0,0,0,0c-39.2,17-66.9,28.4-66.9,28.4
			s-124.3,48.9-244.2,21.3l-66.8,9.9c57.2,98.8,66.8,232,66.8,232L939.3,1540.7z"/>
		<path fill="#6C203A" d="M579.3,1270.6c-10.1,15.6-28.9,60.1-28.9,60.1s99.1,87.4,192.7,67.1s110.5-102.2,110.5-102.2l-41.9-39.8
			L579.3,1270.6z"/>
		
			<ellipse transform="matrix(0.9909 -0.1347 0.1347 0.9909 -147.7702 103.4622)" fill="#FD5D0F" cx="690.9" cy="1144.1" rx="188" ry="180.5"/>
		<path fill="#DC1E00" d="M877.2,1118.7c-6-44.2-28.2-82.5-60.2-109.9c-80-68.8-202.5-41.7-245.6,54.6c-5.7,12.7-9.9,34.5-12.5,50.5
			c-3.7,23.1-36.1,26.6-44,4.6c-5.2-14.6-1.1-33-1-33.2c-9.7,26.2-13.2,54.8-9.2,84c7.6,55.8,41,102.1,87.2,129.2
			c-11.6-24.3-0.1-29.7,11.8-29.8c9-0.1,17.7,2.8,24.9,8.1c34.8,25.7,79.2,39.6,126,36.5C835.9,1284.5,888.8,1204.4,877.2,1118.7z"
			/>
		
			<ellipse transform="matrix(0.9909 -0.1347 0.1347 0.9909 -147.4254 106.8323)" fill="#FFFFFF" cx="716" cy="1143.2" rx="137" ry="137.7"/>
		
			<ellipse transform="matrix(0.9909 -0.1347 0.1347 0.9909 -147.4254 106.8323)" fill="#031F51" cx="716" cy="1143.2" rx="131.4" ry="132.1"/>
		<path fill="#6C203A" d="M749.4,1244.4c-71.9,9.8-138.2-40.9-148-113.2c-3.1-22.4-0.3-44.3,7.1-64.1
			c-18.4,26.3-27.4,59.4-22.7,93.8c9.8,72.3,76.1,123,148,113.2c49.6-6.7,88.9-40.5,105.3-84.5
			C818.8,1218.6,787.1,1239.3,749.4,1244.4z"/>
		<path fill="#A75556" d="M716,1262.8c-53.9,0-100.7-37-114.7-88.2c23.2,49.6,73.5,83.5,130.3,83.5c6.5,0,13-0.4,19.5-1.3
			c1.4-0.2,2.7-0.4,4.1-0.6c-7.4,2.6-15.1,4.4-23.1,5.5C726.8,1262.5,721.4,1262.8,716,1262.8z"/>
		
			<ellipse transform="matrix(0.511 -0.8596 0.8596 0.511 -526.7628 1174.9747)" fill="#0035AD" cx="769.3" cy="1050.5" rx="13.9" ry="28.2"/>
		
			<ellipse transform="matrix(0.511 -0.8596 0.8596 0.511 -521.6105 1176.541)" fill="#FFFFFF" cx="773.3" cy="1046.7" rx="2.7" ry="10.5"/>
		<g>
			<path fill="#DC1E00" d="M404.7,1653.8c0,0.1,0,0.2,0.1,0.3C404.8,1654.1,404.8,1654,404.7,1653.8z"/>
			<path fill="#DC1E00" d="M1071.4,1181.4c-72.8,104.1,11,190.8,50.1,223.1c3-1.2,6.1-2.4,9.2-3.7c9-3.6,17.5-8,25.7-12.9
				C1155.4,1387.5,1028.9,1325.5,1071.4,1181.4z"/>
			<path fill="#DC1E00" d="M224.1,1518.6c158.1,33.8,179.4,129.3,180.6,135.3C385.1,1541.7,294.4,1504,249.2,1492
				C240.3,1500.6,231.9,1509.5,224.1,1518.6z"/>
		</g>
		<polygon fill="#FFFFFF" points="856.2,1470.6 869.3,1441.9 887.6,1467.6 		"/>
		<path fill="#FD5D0F" d="M239.1,1853.5c44.7,18.7,49.9,42.7,51,81.2c1,38.5-22.9,4.2-22.9,4.2s-2.1,15.6,5.2,38.5
			s-66.6,49.6-89.5-5.9c-22.9-55.5,3.1-107,3.1-107S180.8,1838.9,239.1,1853.5z"/>
		<path fill="#DC1E00" d="M1368.9,1031.8c-4.7,20.6-27.1,40.4-27.1,40.4s-8.7,56.1,20.6,49.9l0,0
			C1416.8,1092.2,1368.9,1031.8,1368.9,1031.8z"/>
		<path fill="#FD5D0F" d="M1268,1106.5c-7.3-68.7,20.8-96.2,51-95.4c30.2,0.7,44.7,46.5,30.2,66.3s-38.3-36.5-38.3-36.5
			s25.8,69.3-1.2,101.3C1309.6,1142.1,1264.9,1161.4,1268,1106.5z"/>
		<path fill="#E13300" d="M1002.2,2529.2c0,0,35.9-202.9,7.8-268.4s-213.8-196.6-213.8-196.6c-15.6,85.8-39.5,120.2-39.5,120.2
			l216.9,117L1002.2,2529.2z"/>
		<path fill="#E13300" d="M641.8,2364.2L641.8,2364.2c0,0-144.7,10.5-213.7-72.2c0,0-9.3,10.4-23.4,27.1
			C525.2,2423.5,641.8,2364.2,641.8,2364.2z"/>
		<path fill="#E13300" d="M1164.9,2190.3C1164.9,2190.3,1164.9,2190.3,1164.9,2190.3c-86.4,94.3-191.4,111.1-191.4,111.1l0,0
			l3.3,26.3C1012.7,2320.2,1110.5,2291.2,1164.9,2190.3z"/>
	</g>
</g>
</svg>
